<?xml version="1.0" encoding="UTF-8"?>
<svg xmlns="http://www.w3.org/2000/svg" viewBox="0 0 736 736" fill-rule="evenodd" clip-rule="evenodd">
 <path fill="#4b5563" d="M123 0l490 0c68,0 123,55 123,123l0 490c0,68 -55,123 -123,123l-490 0c-68,0 -123,-55 -123,-123l0 -490c0,-68 55,-123 123,-123z"/>
 <path fill="#fff" fill-rule="nonzero" d="M187 392c0,-94 90,-141 164,-164 19,-6 31,-8 51,-10 10,-1 19,-3 28,-7 0,0 0,0 0,0 7,-4 13,-9 18,-15 4,-6 3,-14 18,-21 1,0 1,0 1,-1 0,0 0,0 -1,-1 -6,-5 -12,-7 -18,-4 -2,1 -3,3 -4,4 -2,2 -5,3 -8,3 -3,-5 -9,-10 -20,-11 -22,-3 -39,-3 -47,-5 -1,0 -1,0 -1,1 -1,0 -1,1 -1,1 2,5 6,17 16,21 0,0 -3,1 -6,1 0,0 -1,0 -1,1 0,0 0,0 0,0 4,4 19,16 38,8 -10,22 -28,21 -48,21 -20,1 -44,2 -72,2 -66,1 -107,-7 -107,-59l0 -54 160 0 82 0 5 0c67,0 106,59 114,122 1,7 2,13 1,19 1,50 -17,100 -57,124l-5 0c97,59 67,265 -58,265l-242 0 0 -77 0 -37 0 -127zm267 -219c0,1 1,1 2,1 1,0 1,-1 1,-2 0,0 -1,-1 -2,0 -1,0 -1,1 -1,1z"/>
</svg>
