<?xml version="1.0" encoding="UTF-8"?>
<svg xmlns="http://www.w3.org/2000/svg" viewBox="0 0 2580 2579" fill-rule="evenodd" clip-rule="evenodd">
 <path fill="#5e81ac" d="M430 0l1720 0c236,0 429,193 429,430l0 1720c0,236 -193,429 -429,429l-1720 0c-237,0 -430,-193 -430,-429l0 -1720c0,-237 193,-430 430,-430z"/>
 <path fill="#fff" fill-rule="nonzero" d="M654 1374c0,-330 316,-496 577,-575 64,-19 109,-28 177,-35 34,-4 68,-10 97,-25 2,-1 0,0 2,-1 24,-12 46,-29 62,-51 14,-20 13,-47 65,-73 1,0 2,-1 2,-3 0,-1 0,-3 -1,-3 -24,-20 -43,-25 -64,-15 -7,4 -12,10 -16,15 -7,6 -16,9 -26,11 -12,-19 -33,-38 -71,-42 -78,-10 -137,-8 -165,-15 -2,-1 -3,0 -5,1 -1,1 -1,3 -1,5 5,18 20,58 54,72 0,0 -11,5 -21,6 0,0 -1,0 -2,1 0,1 0,2 1,2 14,13 65,56 131,27 -35,76 -97,72 -167,75 -69,2 -154,4 -254,6 -231,4 -375,-26 -375,-207l0 -188 561 0 290 0 17 0c233,0 371,204 399,426 4,24 5,47 4,69 4,174 -61,347 -202,433l-18 0c342,207 237,928 -200,928l-851 0 0 -268 0 -130 0 -446zm938 -766c1,2 3,4 6,3 3,-1 4,-4 3,-7 -1,-2 -4,-4 -6,-3 -3,1 -4,4 -3,7z"/>
</svg>
