<?xml version="1.0" encoding="UTF-8"?>
<svg xmlns="http://www.w3.org/2000/svg" viewBox="0 0 9040 2579" fill-rule="evenodd" clip-rule="evenodd">
 <path fill="#4b5563" d="M430 0l1720 0c236,0 429,193 429,430l0 1720c0,236 -193,429 -429,429l-1720 0c-237,0 -430,-193 -430,-429l0 -1720c0,-237 193,-430 430,-430z"/>
 <path fill="#fff" fill-rule="nonzero" d="M654 1374c0,-330 316,-496 577,-575 64,-19 109,-28 177,-35 34,-4 68,-10 97,-25 2,-1 0,0 2,-1 24,-12 46,-29 62,-51 14,-20 13,-47 65,-73 1,0 2,-1 2,-3 0,-1 0,-3 -1,-3 -24,-20 -43,-25 -64,-15 -7,4 -12,10 -16,15 -7,6 -16,9 -26,11 -12,-19 -33,-38 -71,-42 -78,-10 -137,-8 -165,-15 -2,-1 -3,0 -5,1 -1,1 -1,3 -1,5 5,18 20,58 54,72 0,0 -11,5 -21,6 0,0 -1,0 -2,1 0,1 0,2 1,2 14,13 65,56 131,27 -35,76 -97,72 -167,75 -69,2 -154,4 -254,6 -231,4 -375,-26 -375,-207l0 -188 561 0 290 0 17 0c233,0 371,204 399,426 4,24 5,47 4,69 4,174 -61,347 -202,433l-18 0c342,207 237,928 -200,928l-851 0 0 -268 0 -130 0 -446zm938 -766c1,2 3,4 6,3 3,-1 4,-4 3,-7 -1,-2 -4,-4 -6,-3 -3,1 -4,4 -3,7z"/>
 <path fill="#4b5563" fill-rule="nonzero" d="M3377 1199l-358 0 0 -818 318 0c56,0 104,6 144,20 40,13 70,31 91,53 36,43 55,90 55,143 0,64 -21,112 -62,143 -14,11 -24,18 -30,21 -5,2 -15,7 -29,13 51,11 91,34 121,69 30,34 45,78 45,129 0,57 -19,107 -58,151 -45,51 -124,76 -237,76zm-175 -487l86 0c51,0 89,-5 113,-16 25,-11 37,-35 37,-71 0,-36 -11,-60 -34,-72 -22,-12 -61,-18 -115,-18l-87 0 0 177zm0 333l125 0c52,0 91,-7 118,-20 26,-13 39,-38 39,-76 0,-38 -14,-63 -42,-75 -27,-12 -72,-18 -133,-18l-107 0 0 189zm1288 -393c0,132 -52,216 -156,254l207 293 -224 0 -182 -261 -126 0 0 261 -183 0 0 -818 310 0c127,0 218,21 273,64 54,43 81,112 81,207zm-348 128c63,0 105,-10 128,-30 22,-21 34,-53 34,-97 0,-44 -12,-74 -35,-91 -24,-16 -65,-24 -123,-24l-137 0 0 242 133 0zm1154 5c0,-73 -24,-135 -71,-187 -46,-51 -104,-77 -172,-77 -69,0 -126,26 -173,77 -47,52 -70,114 -70,187 0,73 23,135 70,186 47,52 104,77 173,77 68,0 126,-25 172,-77 47,-51 71,-113 71,-186zm62 301c-83,81 -185,121 -306,121 -121,0 -223,-40 -306,-121 -82,-81 -124,-181 -124,-301 0,-121 42,-221 124,-302 83,-81 185,-121 306,-121 121,0 223,40 306,121 82,81 124,181 124,302 0,120 -42,220 -124,301zm521 -235l145 -470 191 0 144 470 163 -470 198 0 -286 818 -136 0 -179 -569 -178 569 -136 0 -286 -818 198 0 162 470zm1196 -329c-31,0 -55,8 -72,22 -18,14 -27,34 -27,57 0,24 11,43 32,57 22,14 72,31 149,50 78,19 138,48 181,86 43,38 65,94 65,168 0,73 -28,132 -83,178 -55,46 -127,69 -217,69 -130,0 -247,-48 -350,-144l108 -134c89,77 170,116 245,116 34,0 60,-7 79,-22 19,-14 29,-34 29,-58 0,-25 -10,-44 -30,-59 -21,-14 -61,-29 -121,-44 -95,-22 -165,-52 -209,-88 -44,-36 -66,-93 -66,-171 0,-78 28,-138 83,-180 56,-42 126,-63 209,-63 55,0 110,9 164,28 55,19 103,45 143,80l-92 133c-71,-54 -145,-81 -220,-81zm1074 -141l0 162 -408 0 0 169 367 0 0 156 -367 0 0 170 420 0 0 161 -603 0 0 -818 591 0zm839 271c0,132 -52,216 -155,254l207 293 -225 0 -182 -261 -126 0 0 261 -183 0 0 -818 311 0c127,0 218,21 272,64 54,43 81,112 81,207zm-348 128c63,0 105,-10 128,-30 23,-21 34,-53 34,-97 0,-44 -12,-74 -35,-91 -23,-16 -64,-24 -123,-24l-137 0 0 242 133 0z"/>
 <path fill="#4b5563" fill-rule="nonzero" d="M3377 2218l-358 0 0 -819 318 0c56,0 104,7 144,20 40,13 70,31 91,54 36,42 55,90 55,143 0,64 -21,111 -62,142 -14,11 -24,18 -30,21 -5,3 -15,7 -29,13 51,11 91,34 121,69 30,35 45,78 45,129 0,57 -19,108 -58,151 -45,51 -124,77 -237,77zm-175 -488l86 0c51,0 89,-5 113,-16 25,-11 37,-35 37,-71 0,-36 -11,-60 -34,-72 -22,-12 -61,-17 -115,-17l-87 0 0 176zm0 333l125 0c52,0 91,-6 118,-19 26,-13 39,-39 39,-76 0,-38 -14,-63 -42,-75 -27,-13 -72,-19 -133,-19l-107 0 0 189zm624 -664l183 0 0 819 -183 0 0 -819zm1048 272c0,131 -52,216 -156,254l208 293 -225 0 -182 -262 -126 0 0 262 -183 0 0 -819 310 0c128,0 218,21 273,64 54,43 81,112 81,208zm-348 127c63,0 105,-10 128,-30 23,-20 34,-53 34,-97 0,-44 -12,-74 -35,-91 -24,-16 -65,-24 -123,-24l-137 0 0 242 133 0zm825 -399c146,0 258,36 336,107 78,72 117,171 117,298 0,127 -38,228 -114,302 -76,75 -193,112 -349,112l-280 0 0 -819 290 0zm9 657c84,0 148,-21 193,-63 45,-42 67,-104 67,-184 0,-81 -22,-142 -67,-186 -45,-43 -114,-65 -207,-65l-102 0 0 498 116 0z"/>
</svg>
